<svg width="434" height="112" viewBox="0 0 434 112" fill="none" xmlns="http://www.w3.org/2000/svg">
<path d="M168.196 54.0045C165.929 54.0045 163.729 53.7245 161.596 53.1645C159.462 52.6045 157.729 51.8578 156.396 50.9245L158.996 45.0845C160.249 45.9111 161.702 46.5778 163.356 47.0845C165.009 47.5911 166.636 47.8445 168.236 47.8445C171.276 47.8445 172.796 47.0845 172.796 45.5645C172.796 44.7645 172.356 44.1778 171.476 43.8045C170.622 43.4045 169.236 42.9911 167.316 42.5645C165.209 42.1111 163.449 41.6311 162.036 41.1245C160.622 40.5911 159.409 39.7511 158.396 38.6045C157.382 37.4578 156.876 35.9111 156.876 33.9645C156.876 32.2578 157.342 30.7245 158.276 29.3645C159.209 27.9778 160.596 26.8845 162.436 26.0845C164.302 25.2845 166.582 24.8845 169.276 24.8845C171.116 24.8845 172.929 25.0978 174.716 25.5245C176.502 25.9245 178.076 26.5245 179.436 27.3245L176.996 33.2045C174.329 31.7645 171.742 31.0445 169.236 31.0445C167.662 31.0445 166.516 31.2845 165.796 31.7645C165.076 32.2178 164.716 32.8178 164.716 33.5645C164.716 34.3111 165.142 34.8711 165.996 35.2445C166.849 35.6178 168.222 36.0045 170.116 36.4045C172.249 36.8578 174.009 37.3511 175.396 37.8845C176.809 38.3911 178.022 39.2178 179.036 40.3645C180.076 41.4845 180.596 43.0178 180.596 44.9645C180.596 46.6445 180.129 48.1645 179.196 49.5245C178.262 50.8845 176.862 51.9778 174.996 52.8045C173.129 53.6045 170.862 54.0045 168.196 54.0045ZM195.494 48.0045C196.534 48.0045 197.427 47.8578 198.174 47.5645C198.947 47.2711 199.721 46.7911 200.494 46.1245L204.454 50.2845C202.401 52.6311 199.334 53.8045 195.254 53.8045C192.721 53.8045 190.494 53.3245 188.574 52.3645C186.654 51.4045 185.161 50.0711 184.094 48.3645C183.054 46.6578 182.534 44.7245 182.534 42.5645C182.534 40.4311 183.054 38.5245 184.094 36.8445C185.134 35.1378 186.561 33.8045 188.374 32.8445C190.214 31.8845 192.267 31.4045 194.534 31.4045C196.641 31.4045 198.561 31.8445 200.294 32.7245C202.054 33.5778 203.454 34.8445 204.494 36.5245C205.534 38.1778 206.054 40.1511 206.054 42.4445L190.574 45.4045C191.401 47.1378 193.041 48.0045 195.494 48.0045ZM194.574 36.8045C193.267 36.8045 192.201 37.2178 191.374 38.0445C190.547 38.8445 190.081 40.0045 189.974 41.5245L198.774 39.8045C198.507 38.8978 198.001 38.1778 197.254 37.6445C196.507 37.0845 195.614 36.8045 194.574 36.8045ZM221.158 48.0045C222.198 48.0045 223.091 47.8578 223.838 47.5645C224.611 47.2711 225.385 46.7911 226.158 46.1245L230.118 50.2845C228.065 52.6311 224.998 53.8045 220.918 53.8045C218.385 53.8045 216.158 53.3245 214.238 52.3645C212.318 51.4045 210.825 50.0711 209.758 48.3645C208.718 46.6578 208.198 44.7245 208.198 42.5645C208.198 40.4311 208.718 38.5245 209.758 36.8445C210.798 35.1378 212.225 33.8045 214.038 32.8445C215.878 31.8845 217.931 31.4045 220.198 31.4045C222.305 31.4045 224.225 31.8445 225.958 32.7245C227.718 33.5778 229.118 34.8445 230.158 36.5245C231.198 38.1778 231.718 40.1511 231.718 42.4445L216.238 45.4045C217.065 47.1378 218.705 48.0045 221.158 48.0045ZM220.238 36.8045C218.931 36.8045 217.865 37.2178 217.038 38.0445C216.211 38.8445 215.745 40.0045 215.638 41.5245L224.438 39.8045C224.171 38.8978 223.665 38.1778 222.918 37.6445C222.171 37.0845 221.278 36.8045 220.238 36.8045ZM247.223 25.4445H255.143V47.1645H268.503V53.4445H247.223V25.4445ZM294.119 31.7645V53.4445H286.879V51.2845C285.465 52.9645 283.332 53.8045 280.479 53.8045C278.505 53.8045 276.705 53.3511 275.079 52.4445C273.479 51.5111 272.199 50.1911 271.239 48.4845C270.305 46.7778 269.839 44.8045 269.839 42.5645C269.839 40.3245 270.305 38.3645 271.239 36.6845C272.199 34.9778 273.479 33.6711 275.079 32.7645C276.705 31.8578 278.505 31.4045 280.479 31.4045C283.039 31.4045 285.052 32.1511 286.519 33.6445V31.7645H294.119ZM282.079 47.7645C283.412 47.7645 284.505 47.3111 285.359 46.4045C286.212 45.4711 286.639 44.1911 286.639 42.5645C286.639 40.9645 286.212 39.7111 285.359 38.8045C284.505 37.8978 283.412 37.4445 282.079 37.4445C280.745 37.4445 279.652 37.8978 278.799 38.8045C277.945 39.7111 277.519 40.9645 277.519 42.5645C277.519 44.1911 277.945 45.4711 278.799 46.4045C279.652 47.3111 280.745 47.7645 282.079 47.7645ZM312.971 52.5645C312.331 52.9645 311.545 53.2711 310.611 53.4845C309.705 53.6978 308.731 53.8045 307.691 53.8045C304.865 53.8045 302.691 53.1111 301.171 51.7245C299.678 50.3378 298.931 48.2711 298.931 45.5245V26.9245H306.531V32.5645H311.451V38.2445H306.531V45.4445C306.531 46.2445 306.731 46.8578 307.131 47.2845C307.531 47.7111 308.078 47.9245 308.771 47.9245C309.651 47.9245 310.425 47.6978 311.091 47.2445L312.971 52.5645ZM326.861 48.0045C327.901 48.0045 328.795 47.8578 329.541 47.5645C330.315 47.2711 331.088 46.7911 331.861 46.1245L335.821 50.2845C333.768 52.6311 330.701 53.8045 326.621 53.8045C324.088 53.8045 321.861 53.3245 319.941 52.3645C318.021 51.4045 316.528 50.0711 315.461 48.3645C314.421 46.6578 313.901 44.7245 313.901 42.5645C313.901 40.4311 314.421 38.5245 315.461 36.8445C316.501 35.1378 317.928 33.8045 319.741 32.8445C321.581 31.8845 323.635 31.4045 325.901 31.4045C328.008 31.4045 329.928 31.8445 331.661 32.7245C333.421 33.5778 334.821 34.8445 335.861 36.5245C336.901 38.1778 337.421 40.1511 337.421 42.4445L321.941 45.4045C322.768 47.1378 324.408 48.0045 326.861 48.0045ZM325.941 36.8045C324.635 36.8045 323.568 37.2178 322.741 38.0445C321.915 38.8445 321.448 40.0045 321.341 41.5245L330.141 39.8045C329.875 38.8978 329.368 38.1778 328.621 37.6445C327.875 37.0845 326.981 36.8045 325.941 36.8045ZM348.165 34.3645C348.939 33.3778 349.939 32.6445 351.165 32.1645C352.419 31.6578 353.845 31.4045 355.445 31.4045V38.2445C354.752 38.1645 354.179 38.1245 353.725 38.1245C352.099 38.1245 350.819 38.5645 349.885 39.4445C348.979 40.3245 348.525 41.6711 348.525 43.4845V53.4445H340.925V31.7645H348.165V34.3645Z" fill="#EFEFEF"/>
<path d="M160.056 77.5076H155.628V76.3556H165.816V77.5076H161.388V88.9556H160.056V77.5076ZM170.476 79.4156C171.712 79.4156 172.66 79.7276 173.32 80.3516C173.98 80.9636 174.31 81.8756 174.31 83.0876V88.9556H173.086V87.4796C172.798 87.9716 172.372 88.3556 171.808 88.6316C171.256 88.9076 170.596 89.0456 169.828 89.0456C168.772 89.0456 167.932 88.7936 167.308 88.2896C166.684 87.7856 166.372 87.1196 166.372 86.2916C166.372 85.4876 166.66 84.8396 167.236 84.3476C167.824 83.8556 168.754 83.6096 170.026 83.6096H173.032V83.0336C173.032 82.2176 172.804 81.5996 172.348 81.1796C171.892 80.7476 171.226 80.5316 170.35 80.5316C169.75 80.5316 169.174 80.6336 168.622 80.8376C168.07 81.0296 167.596 81.2996 167.2 81.6476L166.624 80.6936C167.104 80.2856 167.68 79.9736 168.352 79.7576C169.024 79.5296 169.732 79.4156 170.476 79.4156ZM170.026 88.0376C170.746 88.0376 171.364 87.8756 171.88 87.5516C172.396 87.2156 172.78 86.7356 173.032 86.1116V84.5636H170.062C168.442 84.5636 167.632 85.1276 167.632 86.2556C167.632 86.8076 167.842 87.2456 168.262 87.5696C168.682 87.8816 169.27 88.0376 170.026 88.0376ZM181.309 84.2036L179.077 86.2556V88.9556H177.799V75.5996H179.077V84.6536L184.729 79.4876H186.313L182.263 83.3576L186.691 88.9556H185.125L181.309 84.2036ZM196.485 84.6176H188.565C188.637 85.6016 189.015 86.3996 189.699 87.0116C190.383 87.6116 191.247 87.9116 192.291 87.9116C192.879 87.9116 193.419 87.8096 193.911 87.6056C194.403 87.3896 194.829 87.0776 195.189 86.6696L195.909 87.4976C195.489 88.0016 194.961 88.3856 194.325 88.6496C193.701 88.9136 193.011 89.0456 192.255 89.0456C191.283 89.0456 190.419 88.8416 189.663 88.4336C188.919 88.0136 188.337 87.4376 187.917 86.7056C187.497 85.9736 187.287 85.1456 187.287 84.2216C187.287 83.2976 187.485 82.4696 187.881 81.7376C188.289 81.0056 188.841 80.4356 189.537 80.0276C190.245 79.6196 191.037 79.4156 191.913 79.4156C192.789 79.4156 193.575 79.6196 194.271 80.0276C194.967 80.4356 195.513 81.0056 195.909 81.7376C196.305 82.4576 196.503 83.2856 196.503 84.2216L196.485 84.6176ZM191.913 80.5136C191.001 80.5136 190.233 80.8076 189.609 81.3956C188.997 81.9716 188.649 82.7276 188.565 83.6636H195.279C195.195 82.7276 194.841 81.9716 194.217 81.3956C193.605 80.8076 192.837 80.5136 191.913 80.5136ZM211.807 79.4876L207.073 90.0896C206.689 90.9776 206.245 91.6076 205.741 91.9796C205.237 92.3516 204.631 92.5376 203.923 92.5376C203.467 92.5376 203.041 92.4656 202.645 92.3216C202.249 92.1776 201.907 91.9616 201.619 91.6736L202.213 90.7196C202.693 91.1996 203.269 91.4396 203.941 91.4396C204.373 91.4396 204.739 91.3196 205.039 91.0796C205.351 90.8396 205.639 90.4316 205.903 89.8556L206.317 88.9376L202.087 79.4876H203.419L206.983 87.5336L210.547 79.4876H211.807ZM217.232 89.0456C216.32 89.0456 215.498 88.8416 214.766 88.4336C214.034 88.0136 213.458 87.4376 213.038 86.7056C212.618 85.9736 212.408 85.1456 212.408 84.2216C212.408 83.2976 212.618 82.4696 213.038 81.7376C213.458 81.0056 214.034 80.4356 214.766 80.0276C215.498 79.6196 216.32 79.4156 217.232 79.4156C218.144 79.4156 218.966 79.6196 219.698 80.0276C220.43 80.4356 221 81.0056 221.408 81.7376C221.828 82.4696 222.038 83.2976 222.038 84.2216C222.038 85.1456 221.828 85.9736 221.408 86.7056C221 87.4376 220.43 88.0136 219.698 88.4336C218.966 88.8416 218.144 89.0456 217.232 89.0456ZM217.232 87.9116C217.904 87.9116 218.504 87.7616 219.032 87.4616C219.572 87.1496 219.992 86.7116 220.292 86.1476C220.592 85.5836 220.742 84.9416 220.742 84.2216C220.742 83.5016 220.592 82.8596 220.292 82.2956C219.992 81.7316 219.572 81.2996 219.032 80.9996C218.504 80.6876 217.904 80.5316 217.232 80.5316C216.56 80.5316 215.954 80.6876 215.414 80.9996C214.886 81.2996 214.466 81.7316 214.154 82.2956C213.854 82.8596 213.704 83.5016 213.704 84.2216C213.704 84.9416 213.854 85.5836 214.154 86.1476C214.466 86.7116 214.886 87.1496 215.414 87.4616C215.954 87.7616 216.56 87.9116 217.232 87.9116ZM233.197 79.4876V88.9556H231.973V87.2276C231.637 87.8036 231.175 88.2536 230.587 88.5776C229.999 88.8896 229.327 89.0456 228.571 89.0456C227.335 89.0456 226.357 88.7036 225.637 88.0196C224.929 87.3236 224.575 86.3096 224.575 84.9776V79.4876H225.853V84.8516C225.853 85.8476 226.099 86.6036 226.591 87.1196C227.083 87.6356 227.785 87.8936 228.697 87.8936C229.693 87.8936 230.479 87.5936 231.055 86.9936C231.631 86.3816 231.919 85.5356 231.919 84.4556V79.4876H233.197ZM238.018 81.3416C238.318 80.7056 238.762 80.2256 239.35 79.9016C239.95 79.5776 240.688 79.4156 241.564 79.4156V80.6576L241.258 80.6396C240.262 80.6396 239.482 80.9456 238.918 81.5576C238.354 82.1696 238.072 83.0276 238.072 84.1316V88.9556H236.794V79.4876H238.018V81.3416ZM251.484 77.5076H247.056V76.3556H257.244V77.5076H252.816V88.9556H251.484V77.5076ZM258.873 79.4876H260.151V88.9556H258.873V79.4876ZM259.521 77.4176C259.257 77.4176 259.035 77.3276 258.855 77.1476C258.675 76.9676 258.585 76.7516 258.585 76.4996C258.585 76.2596 258.675 76.0496 258.855 75.8696C259.035 75.6896 259.257 75.5996 259.521 75.5996C259.785 75.5996 260.007 75.6896 260.187 75.8696C260.367 76.0376 260.457 76.2416 260.457 76.4816C260.457 76.7456 260.367 76.9676 260.187 77.1476C260.007 77.3276 259.785 77.4176 259.521 77.4176ZM275.533 79.4156C276.721 79.4156 277.651 79.7576 278.323 80.4416C279.007 81.1256 279.349 82.1336 279.349 83.4656V88.9556H278.071V83.5916C278.071 82.6076 277.831 81.8576 277.351 81.3416C276.883 80.8256 276.217 80.5676 275.353 80.5676C274.369 80.5676 273.595 80.8736 273.031 81.4856C272.467 82.0856 272.185 82.9196 272.185 83.9876V88.9556H270.907V83.5916C270.907 82.6076 270.667 81.8576 270.187 81.3416C269.719 80.8256 269.047 80.5676 268.171 80.5676C267.199 80.5676 266.425 80.8736 265.849 81.4856C265.285 82.0856 265.003 82.9196 265.003 83.9876V88.9556H263.725V79.4876H264.949V81.2156C265.285 80.6396 265.753 80.1956 266.353 79.8836C266.953 79.5716 267.643 79.4156 268.423 79.4156C269.215 79.4156 269.899 79.5836 270.475 79.9196C271.063 80.2556 271.501 80.7536 271.789 81.4136C272.137 80.7896 272.635 80.3036 273.283 79.9556C273.943 79.5956 274.693 79.4156 275.533 79.4156ZM291.112 84.6176H283.192C283.264 85.6016 283.642 86.3996 284.326 87.0116C285.01 87.6116 285.874 87.9116 286.918 87.9116C287.506 87.9116 288.046 87.8096 288.538 87.6056C289.03 87.3896 289.456 87.0776 289.816 86.6696L290.536 87.4976C290.116 88.0016 289.588 88.3856 288.952 88.6496C288.328 88.9136 287.638 89.0456 286.882 89.0456C285.91 89.0456 285.046 88.8416 284.29 88.4336C283.546 88.0136 282.964 87.4376 282.544 86.7056C282.124 85.9736 281.914 85.1456 281.914 84.2216C281.914 83.2976 282.112 82.4696 282.508 81.7376C282.916 81.0056 283.468 80.4356 284.164 80.0276C284.872 79.6196 285.664 79.4156 286.54 79.4156C287.416 79.4156 288.202 79.6196 288.898 80.0276C289.594 80.4356 290.14 81.0056 290.536 81.7376C290.932 82.4576 291.13 83.2856 291.13 84.2216L291.112 84.6176ZM286.54 80.5136C285.628 80.5136 284.86 80.8076 284.236 81.3956C283.624 81.9716 283.276 82.7276 283.192 83.6636H289.906C289.822 82.7276 289.468 81.9716 288.844 81.3956C288.232 80.8076 287.464 80.5136 286.54 80.5136Z" fill="#EFEFEF"/>
<path d="M5.59017 77.1555L69.6889 45.1062L133.788 77.1555L69.6889 109.205L5.59017 77.1555Z" stroke="#5DDADB" stroke-width="5"/>
<line y1="-2.5" x2="72.0052" y2="-2.5" transform="matrix(0.898035 -0.439923 0.562564 0.826754 29.9126 88.7028)" stroke="#5DDADB" stroke-width="5"/>
<line y1="-2.5" x2="72.0052" y2="-2.5" transform="matrix(0.898035 -0.439923 0.562564 0.826754 51.0681 100.318)" stroke="#5DDADB" stroke-width="5"/>
<path d="M5.59017 34.8444L69.6889 2.79509L133.788 34.8444L69.6889 66.8938L5.59017 34.8444Z" stroke="#F78EB6" stroke-width="5"/>
<line y1="-2.5" x2="72.0052" y2="-2.5" transform="matrix(0.898035 -0.439923 0.562564 0.826754 28.6681 47.6362)" stroke="#F78EB6" stroke-width="5"/>
<line y1="-2.5" x2="70.8051" y2="-2.5" transform="matrix(0.898035 -0.439923 0.562564 0.826754 50.3125 58.0066)" stroke="#F78EB6" stroke-width="5"/>
</svg>
